<?xml version="1.0" encoding="UTF-8" standalone="no"?>
<!-- Created with Inkscape (http://www.inkscape.org/) -->

<svg
   xmlns:dc="http://purl.org/dc/elements/1.1/"
   xmlns:cc="http://creativecommons.org/ns#"
   xmlns:rdf="http://www.w3.org/1999/02/22-rdf-syntax-ns#"
   xmlns:svg="http://www.w3.org/2000/svg"
   xmlns="http://www.w3.org/2000/svg"
   xmlns:sodipodi="http://sodipodi.sourceforge.net/DTD/sodipodi-0.dtd"
   xmlns:inkscape="http://www.inkscape.org/namespaces/inkscape"
   width="1114.8024"
   height="1114.8024"
   id="svg2"
   version="1.1"
   inkscape:version="0.48.4 r9939"
   sodipodi:docname="barba.svg">
  <defs
     id="defs4" />
  <sodipodi:namedview
     id="base"
     pagecolor="#ffffff"
     bordercolor="#666666"
     borderopacity="1.0"
     inkscape:pageopacity="0.0"
     inkscape:pageshadow="2"
     inkscape:zoom="0.35"
     inkscape:cx="388.89656"
     inkscape:cy="475.48505"
     inkscape:document-units="px"
     inkscape:current-layer="layer1"
     showgrid="false"
     fit-margin-top="20"
     fit-margin-left="20"
     fit-margin-right="20"
     fit-margin-bottom="20"
     inkscape:window-width="1366"
     inkscape:window-height="744"
     inkscape:window-x="0"
     inkscape:window-y="24"
     inkscape:window-maximized="1" />
  <metadata
     id="metadata7">
    <rdf:RDF>
      <cc:Work
         rdf:about="">
        <dc:format>image/svg+xml</dc:format>
        <dc:type
           rdf:resource="http://purl.org/dc/dcmitype/StillImage" />
        <dc:title />
      </cc:Work>
    </rdf:RDF>
  </metadata>
  <g
     inkscape:label="Layer 1"
     inkscape:groupmode="layer"
     id="layer1"
     transform="translate(1063.7523,-557.50848)">
    <g
       id="g3458"
       transform="matrix(3.1576512,0,0,3.1576512,-633.39574,453.27032)" />
    <g
       id="g3460"
       transform="matrix(3.1576512,0,0,3.1576512,-633.39574,453.27032)" />
    <g
       id="g3462"
       transform="matrix(3.1576512,0,0,3.1576512,-633.39574,453.27032)" />
    <g
       id="g3464"
       transform="matrix(3.1576512,0,0,3.1576512,-633.39574,453.27032)" />
    <g
       id="g3466"
       transform="matrix(3.1576512,0,0,3.1576512,-633.39574,453.27032)" />
    <g
       id="g3468"
       transform="matrix(3.1576512,0,0,3.1576512,-633.39574,453.27032)" />
    <g
       id="g3470"
       transform="matrix(3.1576512,0,0,3.1576512,-633.39574,453.27032)" />
    <g
       id="g3472"
       transform="matrix(3.1576512,0,0,3.1576512,-633.39574,453.27032)" />
    <g
       id="g3474"
       transform="matrix(3.1576512,0,0,3.1576512,-633.39574,453.27032)" />
    <g
       id="g3476"
       transform="matrix(3.1576512,0,0,3.1576512,-633.39574,453.27032)" />
    <g
       id="g3478"
       transform="matrix(3.1576512,0,0,3.1576512,-633.39574,453.27032)" />
    <g
       id="g3480"
       transform="matrix(3.1576512,0,0,3.1576512,-633.39574,453.27032)" />
    <g
       id="g3482"
       transform="matrix(3.1576512,0,0,3.1576512,-633.39574,453.27032)" />
    <g
       id="g3484"
       transform="matrix(3.1576512,0,0,3.1576512,-633.39574,453.27032)" />
    <g
       id="g3486"
       transform="matrix(3.1576512,0,0,3.1576512,-633.39574,453.27032)" />
    <g
       id="g3707"
       transform="matrix(2.2121212,0,0,2.2121212,-819.92857,228.51591)">
      <g
         id="g3671" />
      <g
         id="g3673" />
      <g
         id="g3675" />
      <g
         id="g3677" />
      <g
         id="g3679" />
      <g
         id="g3681" />
      <g
         id="g3683" />
      <g
         id="g3685" />
      <g
         id="g3687" />
      <g
         id="g3689" />
      <g
         id="g3691" />
      <g
         id="g3693" />
      <g
         id="g3695" />
      <g
         id="g3697" />
      <g
         id="g3699" />
    </g>
    <g
       id="g3926">
      <path
         transform="matrix(1.0769231,0,0,1.0769231,144.18714,662.59474)"
         d="m -105.05588,420.00668 a 499.01535,499.01535 0 1 1 -998.03072,0 499.01535,499.01535 0 1 1 998.03072,0 z"
         sodipodi:ry="499.01535"
         sodipodi:rx="499.01535"
         sodipodi:cy="420.00668"
         sodipodi:cx="-604.07123"
         id="path5890"
         style="fill:#b3b3b3;fill-opacity:1;stroke:none"
         sodipodi:type="arc" />
      <g
         id="g3900">
        <g
           id="g6791"
           transform="translate(0,44)">
          <path
             sodipodi:nodetypes="ccccccccscccccscscssccsccccccccsscccsssccsccccccccccc"
             style="fill:#0085a1;fill-opacity:1"
             id="path3456"
             d="m -215.86162,957.37382 c -0.0126,0 -0.0284,0 -0.0442,0 -6.95315,0.0221 -12.58008,5.66167 -12.58955,12.61482 l 0,1.55988 c -0.5747,54.88318 -54.11267,147.32658 -74.6974,178.32838 -21.0489,31.6902 -49.23726,46.4017 -65.50547,52.6538 -4.23441,-27.4937 -17.55654,-82.8504 -57.24506,-100.2617 l -1.36095,-0.5968 c -22.39406,-9.7951 -50.50979,-15.1883 -79.15916,-15.1883 -28.65253,0 -56.76825,5.3932 -79.19389,15.2009 l -1.35463,0.5936 c -39.67273,17.405 -52.98855,72.7586 -57.22296,100.2492 -16.28716,-6.2522 -44.46288,-20.9669 -65.50547,-52.6507 -20.56263,-30.9639 -74.02166,-123.3884 -74.46689,-178.51152 l 0,-1.36095 c 0,-6.95631 -5.62378,-12.60219 -12.58008,-12.63061 -0.0158,0 -0.0347,0 -0.0505,0 -6.93104,0 -12.57376,5.59221 -12.6306,12.53272 l 0,204.14846 c 0,71.1991 47.42739,108.1144 92.73663,156.295 57.14454,60.7659 112.49394,149.634 207.96965,150.3413 l 2.29561,0.01 c 0.009,0 0.006,0 0.0158,0 80.92744,0 130.59195,-80.0879 187.81175,-137.314 57.22927,-57.2293 115.1712,-84.7509 115.1712,-165.6752 l 0.23051,-206.03362 c 0.003,-0.59363 0.006,-1.18411 0,-1.77775 -0.0505,-6.93105 -5.69009,-12.52641 -12.62429,-12.52641 z m -218.92943,348.68368 c -5.54484,6.6563 -13.02847,10.0381 -22.88666,10.3286 -0.67258,0.019 -1.32621,0.028 -1.96721,0.028 l -0.006,0 c -9.13508,0 -13.37897,-2.024 -14.23785,-3.7544 -3.23343,-6.5269 6.31215,-27.1053 16.99764,-41.1316 2.92083,-3.8176 2.70544,-0.7471 0.58034,-5.0541 -2.12825,-4.3102 -5.44596,4.3901 -10.2519,4.3901 l -79.09285,0 c -4.80279,0 -10.25704,-8.7003 -12.38529,-4.3964 -2.12826,4.3038 -0.91822,1.2334 1.99313,5.051 10.69813,14.0357 20.24686,34.6141 17.01343,41.141 -0.85888,1.7336 -5.10592,3.7544 -14.24732,3.7544 -0.64101,0 -1.30096,-0.01 -1.97353,-0.028 -9.85819,-0.2905 -17.34183,-3.6691 -22.88666,-10.3286 -15.26724,-18.3397 -13.24003,-57.1946 -11.17493,-70.6051 0.0379,-0.2432 0.0695,-0.4863 0.0947,-0.7326 0.0411,-0.4073 4.37026,-76.7931 27.62005,-84.662 23.815,-8.0678 45.25538,17.6409 55.13567,12.7876 9.88029,4.8501 30.81559,-20.8554 54.6306,-12.7876 19.45745,6.5869 26.96943,73.2724 28.12513,84.662 0.0221,0.2368 0.0568,0.4863 0.0916,0.7231 2.06826,13.42 4.09547,52.2781 -11.17177,70.6146 z"
             inkscape:connector-curvature="0" />
          <path
             style="fill:#002b36;fill-opacity:1"
             id="path3291"
             d="m -362.36383,1131.8051 c -12.29084,-66.8865 -119.17601,-106.4819 -143.99751,-56.3517 -24.81128,-50.1631 -131.69645,-10.5676 -143.97874,56.3517 -16.06419,69.9006 -101.05942,89.14 -148.24691,52.6645 0,79.0212 79.31576,80.043 128.40091,85.1023 116.26826,-5.4535 153.00311,-62.9875 163.82474,-89.2567 10.83184,26.2911 47.57685,83.8032 163.83495,89.2567 49.12429,-5.0593 128.41114,-6.0811 128.41114,-85.1023 -47.21808,36.4755 -132.18447,17.2361 -148.24858,-52.6645 z"
             inkscape:connector-curvature="0" />
        </g>
        <g
           id="g3878">
          <path
             sodipodi:end="3.1415927"
             sodipodi:start="0"
             transform="matrix(0.11407279,0.17485871,-0.17485871,0.11407279,-515.22841,975.21118)"
             d="m -105.05588,420.00668 a 499.01535,499.01535 0 1 1 -998.03072,-2e-5 l 499.01537,2e-5 z"
             sodipodi:ry="499.01535"
             sodipodi:rx="499.01535"
             sodipodi:cy="420.00668"
             sodipodi:cx="-604.07123"
             id="path5890-0"
             style="fill:#e6e6e6;fill-opacity:1;stroke:none"
             sodipodi:type="arc" />
          <g
             style="fill:#002b36;fill-opacity:1"
             transform="matrix(9.8203373,0,0,9.8203373,-808.93536,617.35359)"
             id="g5869">
            <g
               style="fill:#002b36;fill-opacity:1"
               id="g5829">
              <path
                 style="fill:#002b36;fill-opacity:1"
                 inkscape:connector-curvature="0"
                 d="m 1,29.957 h 1.787 c -0.009,0.201 -0.03,0.398 -0.03,0.602 0,6.979 5.679,12.66 12.66,12.66 6.981,0 12.66,-5.681 12.66,-12.66 0,-0.203 -0.021,-0.4 -0.03,-0.602 h 5.785 c -0.031,0.367 -0.056,0.736 -0.056,1.111 0,6.98 5.679,12.66 12.659,12.66 6.981,0 12.66,-5.68 12.66,-12.66 0,-0.375 -0.023,-0.744 -0.056,-1.111 h 1.585 c 0.553,0 1,-0.447 1,-1 0,-0.553 -0.447,-1 -1,-1 h -1.932 c -1.393,-5.479 -6.352,-9.549 -12.258,-9.549 -5.904,0 -10.865,4.07 -12.256,9.549 H 27.804 C 26.601,22.221 21.505,17.898 15.415,17.898 9.325,17.898 4.229,22.22 3.026,27.957 H 1 c -0.552,0 -1,0.447 -1,1 0,0.553 0.448,1 1,1 z m 45.436,-9.548 c 5.879,0 10.66,4.781 10.66,10.66 0,5.878 -4.781,10.66 -10.66,10.66 -5.877,0 -10.659,-4.782 -10.659,-10.66 -10e-4,-5.88 4.782,-10.66 10.659,-10.66 z M 15.417,19.898 c 5.878,0 10.66,4.781 10.66,10.66 0,5.877 -4.782,10.66 -10.66,10.66 -5.878,0 -10.66,-4.783 -10.66,-10.66 0,-5.878 4.782,-10.66 10.66,-10.66 z"
                 id="path5831" />
            </g>
            <g
               style="fill:#002b36;fill-opacity:1"
               id="g5833" />
            <g
               style="fill:#002b36;fill-opacity:1"
               id="g5835" />
            <g
               style="fill:#002b36;fill-opacity:1"
               id="g5837" />
            <g
               style="fill:#002b36;fill-opacity:1"
               id="g5839" />
            <g
               style="fill:#002b36;fill-opacity:1"
               id="g5841" />
            <g
               style="fill:#002b36;fill-opacity:1"
               id="g5843" />
            <g
               style="fill:#002b36;fill-opacity:1"
               id="g5845" />
            <g
               style="fill:#002b36;fill-opacity:1"
               id="g5847" />
            <g
               style="fill:#002b36;fill-opacity:1"
               id="g5849" />
            <g
               style="fill:#002b36;fill-opacity:1"
               id="g5851" />
            <g
               style="fill:#002b36;fill-opacity:1"
               id="g5853" />
            <g
               style="fill:#002b36;fill-opacity:1"
               id="g5855" />
            <g
               style="fill:#002b36;fill-opacity:1"
               id="g5857" />
            <g
               style="fill:#002b36;fill-opacity:1"
               id="g5859" />
            <g
               style="fill:#002b36;fill-opacity:1"
               id="g5861" />
          </g>
          <path
             sodipodi:end="3.1415927"
             sodipodi:start="0"
             transform="matrix(0.11407279,0.17485871,-0.17485871,0.11407279,-210.97465,980.7807)"
             d="m -105.05588,420.00668 a 499.01535,499.01535 0 1 1 -998.03072,-2e-5 l 499.01537,2e-5 z"
             sodipodi:ry="499.01535"
             sodipodi:rx="499.01535"
             sodipodi:cy="420.00668"
             sodipodi:cx="-604.07123"
             id="path5890-0-5"
             style="fill:#e6e6e6;fill-opacity:1;stroke:none"
             sodipodi:type="arc" />
        </g>
      </g>
    </g>
  </g>
</svg>
